<svg viewBox="0 0 32 32" xmlns="http://www.w3.org/2000/svg"><linearGradient gradientUnits="userSpaceOnUse" id="a" x1="16" x2="16" y1="32" y2="0"><stop offset="0" stop-color="#fff"/><stop offset="1" stop-color="#fff"/></linearGradient><path d="M17.299 27.52c-4.674.248-6.861-.807-8.865-2.724-2.238-2.142-1.339-4.585.484-4.708 1.822-.124 2.916 2.105 3.888 2.727.972.619 4.666 2.027 6.619-.25 2.125-2.477-1.414-3.758-4.009-4.146-3.703-.559-8.38-2.602-8.016-6.629.364-4.023 3.352-6.087 6.497-6.378 4.009-.371 6.618.619 8.683 2.416 2.386 2.075 1.095 4.395-.425 4.582-1.515.185-3.216-3.413-6.556-3.468-3.443-.055-5.77 3.654-1.52 4.707 4.252 1.053 8.806 1.486 10.446 5.449 1.641 3.963-2.549 8.173-7.226 8.422zm13.18-9.429c.088-.659.139-1.33.139-2.012 0-8.19-6.578-14.831-14.693-14.831-.807 0-1.597.068-2.367.196A8.648 8.648 0 008.768 0C3.923 0 0 3.983 0 8.897c0 1.788.519 3.449 1.412 4.844a15.02 15.02 0 00-.182 2.337c0 8.191 6.576 14.831 14.692 14.831.916 0 1.808-.09 2.675-.249A8.686 8.686 0 0023.232 32C28.076 32 32 28.017 32 23.103c0-1.858-.56-3.585-1.521-5.012z" fill="url(#a)"/></svg>