<svg xmlns="http://www.w3.org/2000/svg"
 xmlns:xlink="http://www.w3.org/1999/xlink"
 width="37px" height="36px"  viewBox="0 0 37 36">
<path fill-rule="evenodd"  fill="#f1fbff"
 d="M14.377991,5.2391357 C19.026184,5.2391357 M14.377991,1.0030518 C7.3947144,1.0030518 1.7335815,6.692749 1.7335815,13.710693 C1.7335815,20.72937 7.3947144,26.418335 14.377991,26.418335 C17.107178,26.418335 19.627441,25.540405 21.693787,24.063477 C21.693787,24.063477 31.84845,34.268555 31.84845,34.268555 C32.26068,34.683716 32.800964,34.890625 33.341125,34.890625 C33.881348,34.890625 34.42163,34.683716 34.8338,34.268555 C35.658264,33.440796 35.658264,32.097656 34.8338,31.269043 C34.8338,31.269043 24.679077,21.063599 24.679077,21.063599 C26.149292,18.986572 27.022522,16.453491 27.022522,13.710693 C27.022522,6.692749 21.361328,1.0030518 14.377991,1.0030518 C14.377991,1.0030518 14.377991,1.0030518 14.377991,1.0030518 Z"/>
</svg>