<svg xmlns="http://www.w3.org/2000/svg"
 xmlns:xlink="http://www.w3.org/1999/xlink"
 width="37px" height="36px"  viewBox="0 0 37 36">
<path fill-rule="evenodd"  fill="#ffffff"
 d="M26.803955,6.0915527 C26.803955,6.0915527 M26.830963,1.003418 C26.289642,1.003418 25.748444,1.2094727 25.33551,1.6213379 C25.33551,1.6213379 9.488281,16.88794 9.488281,16.88794 
 C9.488281,16.88794 9.488281,26.418335 9.488281,26.418335 C9.488281,26.418335 19.02771,26.418335 19.02771,26.418335 C19.02771,26.418335 19.02771,26.418335 19.02771,26.418335 
 C19.02771,26.418335 34.307373,10.586426 34.307373,10.586426 C35.13336,9.761108 35.13336,8.423462 34.307465,7.5981445 C34.307465,7.5981445 28.326416,1.6221924 28.326416,1.6221924
  C27.913666,1.2094727 27.372253,1.003418 26.830963,1.003418 C26.830963,1.003418 26.830963,1.003418 26.830963,1.003418 ZM30.687042,29.595581 C30.687042,30.180908 30.212494,30.654907 29.627136,30.654907 
  C29.627136,30.654907 6.308441,30.654907 6.308441,30.654907 C5.7230835,30.654907 5.2484436,30.180908 5.2484436,29.595581 C5.2484436,29.595581 5.2484436,6.2977295 5.2484436,6.2977295 C5.2484436,5.713135 
  5.7230835,5.2391357 6.308441,5.2391357 C6.308441,5.2391357 11.608124,5.2391357 11.608124,5.2391357 C12.778931,5.2391357 13.728027,4.2907715 13.728027,3.121338 C13.728027,3.121338 13.728027,3.121338 13.728027,3.121338
   C13.728027,1.951416 12.778931,1.0030518 11.608124,1.0030518 C11.608124,1.0030518 3.1285095,1.0030518 3.1285095,1.0030518 C1.9578857,1.0030518 1.0087891,1.951416 1.0087891,3.121338 C1.0087891,3.121338 1.0087891,32.77234 
   1.0087891,32.77234 C1.0087891,33.941895 1.9578857,34.890625 3.1285095,34.890625 C3.1285095,34.890625 32.806946,34.890625 32.806946,34.890625 C33.977783,34.890625 34.92679,33.941895 34.92679,32.77234 C34.92679,32.77234 
   34.92679,24.300415 34.92679,24.300415 C34.92679,23.131348 33.977783,22.182617 32.806946,22.182617 C32.806946,22.182617 32.806946,22.182617 32.806946,22.182617 C31.636139,22.182617 30.687042,23.131348 30.687042,24.300415
    C30.687042,24.300415 30.687042,29.595581 30.687042,29.595581 Z"/>
</svg>